<svg width="70" height="70" viewBox="0 0 70 70" fill="none" xmlns="http://www.w3.org/2000/svg">
<path d="M31.4067 15.3125H38.5933C40.9646 15.3125 42.8779 15.3125 44.4267 15.4379C46.0192 15.5692 47.4192 15.8462 48.7142 16.5054C50.7736 17.5536 52.4481 19.2271 53.4975 21.2858C54.1567 22.5808 54.4308 23.9808 54.5621 25.5733C54.6875 27.1221 54.6875 29.0354 54.6875 31.4067V38.5933C54.6875 40.9646 54.6875 42.8779 54.5621 44.4267C54.4308 46.0192 54.1538 47.4192 53.4946 48.7142C52.4464 50.7736 50.7729 52.4481 48.7142 53.4975C47.4192 54.1567 46.0192 54.4308 44.4267 54.5621C42.8779 54.6875 40.9646 54.6875 38.5933 54.6875H28.0642C22.2162 54.6875 19.285 47.6175 23.4208 43.4846L36.2833 30.625H31.7188C31.1386 30.625 30.5822 30.3945 30.172 29.9843C29.7617 29.5741 29.5312 29.0177 29.5312 28.4375C29.5312 27.8573 29.7617 27.3009 30.172 26.8907C30.5822 26.4805 31.1386 26.25 31.7188 26.25H41.5625C42.1427 26.25 42.6991 26.4805 43.1093 26.8907C43.5195 27.3009 43.75 27.8573 43.75 28.4375V38.2812C43.75 38.8614 43.5195 39.4178 43.1093 39.828C42.6991 40.2383 42.1427 40.4688 41.5625 40.4688C40.9823 40.4688 40.4259 40.2383 40.0157 39.828C39.6055 39.4178 39.375 38.8614 39.375 38.2812V33.7196L26.5154 46.5792C26.2099 46.8851 26.0018 47.2747 25.9176 47.6988C25.8334 48.1229 25.8767 48.5624 26.0421 48.9619C26.2075 49.3613 26.4876 49.7028 26.8469 49.9432C27.2063 50.1836 27.6289 50.3121 28.0613 50.3125H38.5C40.9879 50.3125 42.7204 50.3125 44.0708 50.2017C45.3921 50.0908 46.1533 49.8896 46.7308 49.5979C47.9646 48.9679 48.9679 47.9646 49.5979 46.7308C49.8896 46.1533 50.0938 45.3921 50.2017 44.0679C50.3096 42.7204 50.3125 40.9879 50.3125 38.5V31.5C50.3125 29.015 50.3125 27.2796 50.2017 25.9292C50.0908 24.6079 49.8896 23.8467 49.5979 23.2721C48.9693 22.0366 47.9657 21.0319 46.7308 20.4021C46.1533 20.1104 45.3921 19.9063 44.0679 19.7983C42.7204 19.6904 40.9879 19.6875 38.5 19.6875H31.5C29.015 19.6875 27.2796 19.6875 25.9292 19.7983C24.6079 19.9063 23.8467 20.1104 23.2721 20.4021C22.0362 21.0314 21.0314 22.0362 20.4021 23.2721C20.1104 23.8467 19.9063 24.6079 19.7983 25.9321C19.6904 27.2796 19.6875 29.015 19.6875 31.5V39.375C19.6875 39.9552 19.457 40.5116 19.0468 40.9218C18.6366 41.332 18.0802 41.5625 17.5 41.5625C16.9198 41.5625 16.3634 41.332 15.9532 40.9218C15.543 40.5116 15.3125 39.9552 15.3125 39.375V31.4067C15.3125 29.0354 15.3125 27.1221 15.4379 25.5733C15.5692 23.9808 15.8462 22.5808 16.5054 21.2858C17.5536 19.2264 19.2271 17.5519 21.2858 16.5025C22.5808 15.8433 23.9808 15.5692 25.5733 15.4379C27.1221 15.3125 29.0354 15.3125 31.4067 15.3125Z" fill="black"/>
</svg>
