<svg width="159" height="159" viewBox="0 0 159 159" fill="none" xmlns="http://www.w3.org/2000/svg">
<g clip-path="url(#clip0_245_96)">
<path d="M134.156 58.4325C131.374 58.4325 129.188 56.2463 129.188 53.4638V14.9062C129.188 12.1237 127.001 9.9375 124.219 9.9375H34.7812C31.9987 9.9375 29.8125 12.1237 29.8125 14.9062V34.7812C29.8125 37.5638 27.6262 39.75 24.8438 39.75C22.0612 39.75 19.875 37.5638 19.875 34.7812V14.9062C19.875 6.65813 26.5331 0 34.7812 0H124.219C132.467 0 139.125 6.65813 139.125 14.9062V53.4638C139.125 56.2463 136.939 58.4325 134.156 58.4325Z" fill="black"/>
<path d="M144.094 159H14.9062C6.65813 159 0 152.342 0 144.094V44.7188C0 36.4706 6.65813 29.8125 14.9062 29.8125H62.1094C63.6994 29.8125 65.19 30.5081 66.0844 31.8L79.5 49.6875H144.094C152.342 49.6875 159 56.3456 159 64.5938V144.094C159 152.342 152.342 159 144.094 159ZM14.9062 39.75C12.1237 39.75 9.9375 41.9362 9.9375 44.7188V144.094C9.9375 146.876 12.1237 149.062 14.9062 149.062H144.094C146.876 149.062 149.062 146.876 149.062 144.094V64.5938C149.062 61.8113 146.876 59.625 144.094 59.625H77.0156C76.2415 59.6412 75.4751 59.4687 74.7825 59.1225C74.09 58.7762 73.4921 58.2665 73.0406 57.6375L59.625 39.75H14.9062Z" fill="black"/>
<path d="M54.6562 129.188H34.7812C31.9987 129.188 29.8125 127.001 29.8125 124.219C29.8125 121.436 31.9987 119.25 34.7812 119.25H54.6562C57.4387 119.25 59.625 121.436 59.625 124.219C59.625 127.001 57.4387 129.188 54.6562 129.188Z" fill="black"/>
</g>
<defs>
<clipPath id="clip0_245_96">
<rect width="159" height="159" fill="white"/>
</clipPath>
</defs>
</svg>
