<svg width="145" height="147" viewBox="0 0 145 147" fill="none" xmlns="http://www.w3.org/2000/svg">
<path d="M134.26 0.583295H10.7396C9.35107 0.564011 7.97238 0.818433 6.68223 1.33203C5.39208 1.84563 4.21573 2.60834 3.22038 3.57661C2.22502 4.54488 1.43016 5.69974 0.881171 6.97524C0.332185 8.25074 0.0398325 9.62189 0.020813 11.0104V135.99C0.0398325 137.378 0.332185 138.749 0.881171 140.025C1.43016 141.3 2.22502 142.455 3.22038 143.423C4.21573 144.392 5.39208 145.154 6.68223 145.668C7.97238 146.181 9.35107 146.436 10.7396 146.417H134.26C135.649 146.436 137.028 146.181 138.318 145.668C139.608 145.154 140.784 144.392 141.78 143.423C142.775 142.455 143.57 141.3 144.119 140.025C144.668 138.749 144.96 137.378 144.979 135.99V11.0104C144.96 9.62189 144.668 8.25074 144.119 6.97524C143.57 5.69974 142.775 4.54488 141.78 3.57661C140.784 2.60834 139.608 1.84563 138.318 1.33203C137.028 0.818433 135.649 0.564011 134.26 0.583295ZM43.9896 122.646H22.1146V57.0208H43.9896V122.646ZM33.0521 47.8333C30.0352 47.8333 27.142 46.6349 25.0087 44.5016C22.8755 42.3684 21.6771 39.4751 21.6771 36.4583C21.6771 33.4415 22.8755 30.5482 25.0087 28.415C27.142 26.2817 30.0352 25.0833 33.0521 25.0833C34.654 24.9016 36.2763 25.0604 37.8126 25.5491C39.349 26.0379 40.7647 26.8456 41.9673 27.9195C43.1698 28.9933 44.1319 30.3091 44.7907 31.7806C45.4495 33.252 45.79 34.8461 45.79 36.4583C45.79 38.0705 45.4495 39.6645 44.7907 41.136C44.1319 42.6075 43.1698 43.9233 41.9673 44.9971C40.7647 46.071 39.349 46.8787 37.8126 47.3675C36.2763 47.8562 34.654 48.015 33.0521 47.8333ZM122.885 122.646H101.01V87.427C101.01 78.6041 97.875 72.8437 89.9271 72.8437C87.4673 72.8617 85.0722 73.6333 83.0644 75.0543C81.0566 76.4754 79.5327 78.4778 78.6979 80.7916C78.1273 82.5055 77.88 84.3104 77.9687 86.1145V122.573H56.0937V56.9479H77.9687V66.2083C79.9559 62.7601 82.8462 59.9194 86.3282 57.9921C89.8102 56.0648 93.752 55.1239 97.7291 55.2708C112.312 55.2708 122.885 64.6771 122.885 84.875V122.646Z" fill="black"/>
</svg>
